<svg width="557" height="615" viewBox="0 0 557 615" fill="none" xmlns="http://www.w3.org/2000/svg">
<g id="Group 17">
<path id="Path 3" fill-rule="evenodd" clip-rule="evenodd" d="M341.639 -2.67463C265.936 -26.3683 188.096 -65.8875 108.404 6.29494C28.7114 78.4773 -21.3904 141.709 10.9639 223.522C43.3182 305.336 175.386 254.377 213.758 327.499C252.131 400.621 167.817 466.984 204.167 532.062C240.516 597.14 268.466 638.849 385.282 597.471C502.098 556.092 491.327 450.807 580.16 389.153C668.993 327.499 765.104 235.2 633.206 70.5062C501.309 -94.1879 417.341 21.0191 341.639 -2.67463Z" stroke="#96A9C6"/>
<path id="Path 3 Copy" fill-rule="evenodd" clip-rule="evenodd" d="M351.105 35.2488C289.522 16.0091 226.2 -16.0812 161.371 42.5323C96.5429 101.146 55.7857 152.491 82.1055 218.925C108.425 285.359 215.86 243.98 247.076 303.356C278.292 362.732 209.704 416.621 239.274 469.465C268.843 522.31 291.58 556.178 386.608 522.578C481.636 488.978 472.875 403.484 545.139 353.42C617.403 303.356 695.588 228.408 588.291 94.673C480.994 -39.0617 412.688 54.4885 351.105 35.2488Z" stroke="#96A9C6"/>
<path id="Path 3 Copy 2" fill-rule="evenodd" clip-rule="evenodd" d="M368.812 60.4174C318.85 44.719 267.478 18.5353 214.883 66.3603C162.289 114.185 129.223 156.08 150.576 210.286C171.929 264.492 259.09 230.729 284.414 279.176C309.739 327.624 254.095 371.594 278.084 414.712C302.074 457.829 320.52 485.464 397.615 458.048C474.71 430.633 467.602 360.875 526.229 320.026C584.856 279.176 648.287 218.023 561.238 108.904C474.189 -0.215408 418.773 76.1159 368.812 60.4174Z" stroke="#96A9C6"/>
<path id="Path 3 Copy 5" fill-rule="evenodd" clip-rule="evenodd" d="M387.316 91.1837C347.021 78.5885 305.588 57.5806 263.169 95.9519C220.75 134.323 194.082 167.936 211.304 211.427C228.525 254.918 298.822 227.829 319.247 266.7C339.672 305.57 294.794 340.848 314.142 375.443C333.49 410.038 348.367 432.21 410.546 410.213C472.725 388.217 466.992 332.248 514.276 299.474C561.56 266.7 612.718 217.635 542.512 130.086C472.305 42.5365 427.611 103.779 387.316 91.1837Z" stroke="#96A9C6"/>
<path id="Path 3 Copy 4" fill-rule="evenodd" clip-rule="evenodd" d="M392.083 111.046C359.173 100.751 325.334 83.5789 290.69 114.943C256.047 146.308 234.266 173.783 248.332 209.332C262.397 244.881 319.809 222.739 336.49 254.511C353.172 286.283 316.519 315.12 332.321 343.397C348.123 371.674 360.273 389.797 411.055 371.818C461.837 353.838 457.155 308.09 495.773 281.301C534.39 254.511 576.171 214.406 518.833 142.844C461.494 71.282 424.992 121.341 392.083 111.046Z" stroke="#96A9C6"/>
<path id="Path 3 Copy 3" fill-rule="evenodd" clip-rule="evenodd" d="M401.225 125.406C374.507 117.046 347.034 103.101 318.907 128.571C290.78 154.041 273.097 176.352 284.517 205.22C295.936 234.088 342.548 216.107 356.091 241.908C369.635 267.709 339.877 291.125 352.706 314.088C365.535 337.051 375.4 351.768 416.629 337.168C457.858 322.567 454.057 285.417 485.409 263.663C516.762 241.908 550.684 209.34 504.132 151.228C457.579 93.1155 427.944 133.766 401.225 125.406Z" stroke="#96A9C6"/>
</g>
</svg>
